<svg width="25" height="24" viewBox="0 0 25 24" fill="none" xmlns="http://www.w3.org/2000/svg">
<path opacity="0.4" d="M12.75 22C18.2728 22 22.75 17.5228 22.75 12C22.75 6.47715 18.2728 2 12.75 2C7.22715 2 2.75 6.47715 2.75 12C2.75 17.5228 7.22715 22 12.75 22Z" fill="#1D2041"/>
<path d="M16.75 11.25H13.5V8C13.5 7.59 13.16 7.25 12.75 7.25C12.34 7.25 12 7.59 12 8V11.25H8.75C8.34 11.25 8 11.59 8 12C8 12.41 8.34 12.75 8.75 12.75H12V16C12 16.41 12.34 16.75 12.75 16.75C13.16 16.75 13.5 16.41 13.5 16V12.75H16.75C17.16 12.75 17.5 12.41 17.5 12C17.5 11.59 17.16 11.25 16.75 11.25Z" fill="#1D2041"/>
</svg>
