<svg width="25" height="24" viewBox="0 0 25 24" fill="none" xmlns="http://www.w3.org/2000/svg">
<path d="M21.9202 6.9499C21.2802 4.7799 19.4702 2.9699 17.3002 2.3299C15.6502 1.8499 14.5102 1.8899 13.7202 2.4799C12.7702 3.1899 12.6602 4.4699 12.6602 5.3799V7.8699C12.6602 10.3299 13.7802 11.5799 15.9802 11.5799H18.8502C19.7502 11.5799 21.0402 11.4699 21.7502 10.5199C22.3602 9.7399 22.4102 8.5999 21.9202 6.9499Z" fill="#1D2041"/>
<path opacity="0.4" d="M19.1604 13.3599C18.9004 13.0599 18.5204 12.8899 18.1304 12.8899H14.5504C12.7904 12.8899 11.3604 11.4599 11.3604 9.69991V6.11991C11.3604 5.72991 11.1904 5.34991 10.8904 5.08991C10.6004 4.82991 10.2004 4.70991 9.82039 4.75991C7.47039 5.05991 5.31039 6.34991 3.90039 8.28991C2.48039 10.2399 1.96039 12.6199 2.41039 14.9999C3.06039 18.4399 5.81039 21.1899 9.26039 21.8399C9.81039 21.9499 10.3604 21.9999 10.9104 21.9999C12.7204 21.9999 14.4704 21.4399 15.9604 20.3499C17.9004 18.9399 19.1904 16.7799 19.4904 14.4299C19.5404 14.0399 19.4204 13.6499 19.1604 13.3599Z" fill="#1D2041"/>
</svg>
