<svg width="25" height="24" viewBox="0 0 25 24" fill="none" xmlns="http://www.w3.org/2000/svg">
<path d="M21.92 6.9499C21.28 4.7799 19.47 2.9699 17.3 2.3299C15.65 1.8499 14.51 1.8899 13.72 2.4799C12.77 3.1899 12.66 4.4699 12.66 5.3799V7.8699C12.66 10.3299 13.78 11.5799 15.98 11.5799H18.85C19.75 11.5799 21.04 11.4699 21.75 10.5199C22.36 9.7399 22.41 8.5999 21.92 6.9499Z" fill="#9B9DAB"/>
<path opacity="0.4" d="M19.16 13.3599C18.9 13.0599 18.52 12.8899 18.13 12.8899H14.55C12.79 12.8899 11.36 11.4599 11.36 9.69991V6.11991C11.36 5.72991 11.19 5.34991 10.89 5.08991C10.6 4.82991 10.2 4.70991 9.82002 4.75991C7.47002 5.05991 5.31002 6.34991 3.90002 8.28991C2.48002 10.2399 1.96002 12.6199 2.41002 14.9999C3.06002 18.4399 5.81002 21.1899 9.26002 21.8399C9.81002 21.9499 10.36 21.9999 10.91 21.9999C12.72 21.9999 14.47 21.4399 15.96 20.3499C17.9 18.9399 19.19 16.7799 19.49 14.4299C19.54 14.0399 19.42 13.6499 19.16 13.3599Z" fill="#9B9DAB"/>
</svg>
