<svg width="25" height="24" viewBox="0 0 25 24" fill="none" xmlns="http://www.w3.org/2000/svg">
<path opacity="0.4" d="M12.25 22C17.7728 22 22.25 17.5228 22.25 12C22.25 6.47715 17.7728 2 12.25 2C6.72715 2 2.25 6.47715 2.25 12C2.25 17.5228 6.72715 22 12.25 22Z" fill="#1D2041"/>
<path d="M15.7799 11.97C15.4899 11.68 15.0099 11.68 14.7199 11.97L12.9999 13.69V8.5C12.9999 8.09 12.6599 7.75 12.2499 7.75C11.8399 7.75 11.4999 8.09 11.4999 8.5V13.69L9.77994 11.97C9.48994 11.68 9.00994 11.68 8.71994 11.97C8.42994 12.26 8.42994 12.74 8.71994 13.03L11.7199 16.03C11.8699 16.18 12.0599 16.25 12.2499 16.25C12.4399 16.25 12.6299 16.18 12.7799 16.03L15.7799 13.03C16.0699 12.74 16.0699 12.26 15.7799 11.97Z" fill="#1D2041"/>
</svg>
