<svg width="25" height="24" viewBox="0 0 25 24" fill="none" xmlns="http://www.w3.org/2000/svg">
<path opacity="0.4" d="M12.8333 22C18.3561 22 22.8333 17.5228 22.8333 12C22.8333 6.47715 18.3561 2 12.8333 2C7.3104 2 2.83325 6.47715 2.83325 12C2.83325 17.5228 7.3104 22 12.8333 22Z" fill="#1D2041"/>
<path d="M18.6832 13.5301C18.6032 13.3501 18.4632 13.2001 18.2732 13.1201C18.1832 13.0801 18.0832 13.0601 17.9832 13.0601H7.67322C7.26322 13.0601 6.92322 13.4001 6.92322 13.8101C6.92322 14.2201 7.26322 14.5601 7.67322 14.5601H16.1732L14.4132 16.3201C14.1232 16.6101 14.1232 17.0901 14.4132 17.3801C14.5632 17.5301 14.7532 17.6001 14.9432 17.6001C15.1332 17.6001 15.3232 17.5301 15.4732 17.3801L18.5132 14.3401C18.5832 14.2701 18.6332 14.1901 18.6732 14.1001C18.7532 13.9201 18.7532 13.7101 18.6832 13.5301Z" fill="#1D2041"/>
<path d="M17.9832 9.43009H9.48322L11.2432 7.67011C11.5332 7.38011 11.5332 6.90008 11.2432 6.61008C10.9532 6.32008 10.4732 6.32008 10.1832 6.61008L7.14322 9.65009C7.07322 9.72009 7.02322 9.80011 6.98322 9.89011C6.90322 10.0701 6.90322 10.2801 6.98322 10.4601C7.06322 10.6401 7.20322 10.7901 7.39322 10.8701C7.48322 10.9101 7.58323 10.9301 7.68323 10.9301H17.9932C18.4032 10.9301 18.7432 10.5901 18.7432 10.1801C18.7432 9.77009 18.4032 9.43009 17.9832 9.43009Z" fill="#1D2041"/>
</svg>
